<?xml version="1.0" encoding="UTF-8" standalone="no"?>
<!-- Created with Inkscape (http://www.inkscape.org/) -->

<svg
   width="24"
   height="24"
   id="svg2"
   sodipodi:version="0.32"
   inkscape:version="1.2.2 (b0a8486541, 2022-12-01)"
   version="1.0"
   sodipodi:docname="centos.svg"
   inkscape:output_extension="org.inkscape.output.svg.inkscape"
   sodipodi:modified="true"
   xmlns:inkscape="http://www.inkscape.org/namespaces/inkscape"
   xmlns:sodipodi="http://sodipodi.sourceforge.net/DTD/sodipodi-0.dtd"
   xmlns:xlink="http://www.w3.org/1999/xlink"
   xmlns="http://www.w3.org/2000/svg"
   xmlns:svg="http://www.w3.org/2000/svg"
   xmlns:rdf="http://www.w3.org/1999/02/22-rdf-syntax-ns#"
   xmlns:cc="http://creativecommons.org/ns#"
   xmlns:dc="http://purl.org/dc/elements/1.1/">
  <defs
     id="defs4">
    <linearGradient
       id="linearGradient4348">
      <stop
         id="stop4350"
         offset="0"
         style="stop-color:#ffffff;stop-opacity:0.42662117;" />
      <stop
         id="stop4352"
         offset="1"
         style="stop-color:#ffffff;stop-opacity:0;" />
    </linearGradient>
    <linearGradient
       inkscape:collect="always"
       xlink:href="#linearGradient4348"
       id="linearGradient2454"
       gradientUnits="userSpaceOnUse"
       gradientTransform="matrix(0.3775481,0,0,0.3776435,3.903896,10.941919)"
       x1="91.292969"
       y1="21.437487"
       x2="154.29752"
       y2="93.06443" />
    <linearGradient
       inkscape:collect="always"
       xlink:href="#linearGradient4348"
       id="linearGradient2456"
       gradientUnits="userSpaceOnUse"
       gradientTransform="matrix(0.3775481,0,0,0.3776435,3.903896,10.941919)"
       x1="19.91527"
       y1="97.233208"
       x2="91.320808"
       y2="159.13304" />
    <linearGradient
       inkscape:collect="always"
       xlink:href="#linearGradient4348"
       id="linearGradient2458"
       gradientUnits="userSpaceOnUse"
       gradientTransform="matrix(0.3775481,0,0,0.3776435,3.903896,10.941919)"
       x1="88.662895"
       y1="156.82332"
       x2="154.89615"
       y2="228.45026" />
    <linearGradient
       inkscape:collect="always"
       xlink:href="#linearGradient4348"
       id="linearGradient2460"
       gradientUnits="userSpaceOnUse"
       gradientTransform="matrix(0.3775481,0,0,0.3776435,3.903896,10.941919)"
       x1="157.80753"
       y1="93.264984"
       x2="230.11945"
       y2="157.81766" />
    <linearGradient
       inkscape:collect="always"
       xlink:href="#linearGradient4348"
       id="linearGradient2462"
       gradientUnits="userSpaceOnUse"
       gradientTransform="matrix(0.3775481,0,0,0.3776435,3.903896,10.941919)"
       x1="39.53125"
       y1="39.28125"
       x2="109.71287"
       y2="109.30125" />
    <linearGradient
       inkscape:collect="always"
       xlink:href="#linearGradient4348"
       id="linearGradient2464"
       gradientUnits="userSpaceOnUse"
       gradientTransform="matrix(0.3775481,0,0,0.3776435,3.903896,10.941919)"
       x1="39.53125"
       y1="137.53125"
       x2="113.46875"
       y2="211.46875" />
    <linearGradient
       inkscape:collect="always"
       xlink:href="#linearGradient4348"
       id="linearGradient2466"
       gradientUnits="userSpaceOnUse"
       gradientTransform="matrix(0.3775481,0,0,0.3776435,3.903896,10.941919)"
       x1="137.96875"
       y1="137.53125"
       x2="209.72679"
       y2="211.46875" />
    <linearGradient
       inkscape:collect="always"
       xlink:href="#linearGradient4348"
       id="linearGradient2468"
       gradientUnits="userSpaceOnUse"
       gradientTransform="matrix(0.3775481,0,0,0.3776435,3.903896,10.941919)"
       x1="141.94803"
       y1="42.870628"
       x2="204.4211"
       y2="113" />
    <radialGradient
       inkscape:collect="always"
       xlink:href="#linearGradient4348"
       id="radialGradient2470"
       gradientUnits="userSpaceOnUse"
       gradientTransform="matrix(0.26775587,0.00198174,-0.00119795,0.16194354,17.791134,37.588286)"
       cx="125.12608"
       cy="124.68383"
       fx="125.12608"
       fy="124.68383"
       r="117.84375" />
  </defs>
  <sodipodi:namedview
     id="base"
     pagecolor="#ffffff"
     bordercolor="#666666"
     borderopacity="1.0"
     gridtolerance="10000"
     guidetolerance="10"
     objecttolerance="10"
     inkscape:pageopacity="0.0"
     inkscape:pageshadow="2"
     inkscape:zoom="8.58"
     inkscape:cx="12.820513"
     inkscape:cy="27.622378"
     inkscape:document-units="px"
     inkscape:current-layer="layer1"
     showguides="true"
     inkscape:guide-bbox="true"
     width="480px"
     height="120px"
     inkscape:window-width="1152"
     inkscape:window-height="791"
     inkscape:window-x="26"
     inkscape:window-y="23"
     showgrid="false"
     fit-margin-top="0"
     fit-margin-left="0"
     fit-margin-right="0"
     fit-margin-bottom="0"
     inkscape:window-maximized="0"
     inkscape:showpageshadow="2"
     inkscape:pagecheckerboard="0"
     inkscape:deskcolor="#d1d1d1" />
  <metadata
     id="metadata7">
    <rdf:RDF>
      <cc:Work
         rdf:about="">
        <dc:format>image/svg+xml</dc:format>
        <dc:type
           rdf:resource="http://purl.org/dc/dcmitype/StillImage" />
      </cc:Work>
    </rdf:RDF>
  </metadata>
  <g
     inkscape:label="Layer 1"
     inkscape:groupmode="layer"
     id="layer1"
     transform="translate(-4.6000003,-9.022361)">
    <g
       id="g4197"
       transform="matrix(0.25301767,0,0,0.25301767,3.6236899,6.2622765)">
      <rect
         style="display:inline;fill:#efa724;fill-opacity:1;stroke:none;stroke-width:1.00005;stroke-miterlimit:4;stroke-opacity:1"
         id="rect2261"
         width="29.432009"
         height="29.428127"
         x="-74.70285"
         y="-2.1854122"
         transform="matrix(-0.70703395,-0.70717961,0.70703395,-0.70717961,0,0)" />
      <rect
         style="display:inline;fill:#932279;fill-opacity:1;stroke:none;stroke-width:1.00005;stroke-miterlimit:4;stroke-opacity:1"
         id="rect2263"
         width="29.432169"
         height="29.428282"
         x="-74.704239"
         y="-37.235493"
         transform="matrix(-0.70703595,-0.70717761,0.70703595,-0.70717761,0,0)" />
      <path
         style="display:inline;fill:url(#linearGradient2454);fill-opacity:1;stroke:none;stroke-width:1.00005;stroke-miterlimit:4;stroke-opacity:1"
         d="m 33.647607,33.565125 c 5.871659,5.873142 11.743321,11.746288 17.614979,17.61943 5.871658,-5.873142 11.74332,-11.746288 17.614978,-17.61943 C 63.005906,27.691983 57.134244,21.818838 51.262586,15.945696 45.390928,21.818838 39.519266,27.691983 33.647607,33.565125 Z"
         id="rect4397"
         inkscape:connector-curvature="0" />
      <path
         style="display:inline;fill:url(#linearGradient2456);fill-opacity:1;stroke:none;stroke-width:1.00005;stroke-miterlimit:4;stroke-opacity:1"
         d="M 8.8710132,58.34798 C 14.742671,64.221122 20.614333,70.094268 26.485992,75.96741 32.35765,70.094268 38.229312,64.221122 44.10097,58.34798 38.229312,52.474838 32.35765,46.601692 26.485992,40.728551 20.614333,46.601692 14.742671,52.474838 8.8710132,58.34798 Z"
         id="rect4399"
         inkscape:connector-curvature="0" />
      <rect
         style="display:inline;fill:#9ccd2a;fill-opacity:1;stroke:none;stroke-width:1;stroke-miterlimit:4;stroke-opacity:1"
         id="rect2267"
         width="29.349672"
         height="29.353384"
         x="18.072319"
         y="25.020174" />
      <rect
         style="display:inline;fill:#9ccd2a;fill-opacity:1;stroke:none;stroke-width:1.00006;stroke-miterlimit:4;stroke-opacity:1"
         id="rect2269"
         width="29.355003"
         height="29.351131"
         x="-109.71516"
         y="-37.275478"
         transform="matrix(-0.70704045,-0.70717311,0.70704045,-0.70717311,0,0)" />
      <path
         style="display:inline;fill:url(#linearGradient2458);fill-opacity:1;stroke:none;stroke-width:1.00006;stroke-miterlimit:4;stroke-opacity:1"
         d="M 33.659406,83.189842 C 39.511401,89.043316 45.363397,94.89679 51.215392,100.75026 57.067388,94.89679 62.919383,89.043316 68.771379,83.189842 62.919383,77.336367 57.067388,71.482893 51.215392,65.629419 45.363397,71.482893 39.511401,77.336367 33.659406,83.189842 Z"
         id="rect4403"
         inkscape:connector-curvature="0" />
      <rect
         style="display:inline;fill:#262577;fill-opacity:1;stroke:none;stroke-width:1;stroke-miterlimit:4;stroke-opacity:1"
         id="rect2272"
         width="29.427122"
         height="29.430761"
         x="18.072296"
         y="62.123764" />
      <rect
         style="display:inline;fill:#262577;fill-opacity:1;stroke:none;stroke-width:1.00005;stroke-miterlimit:4;stroke-opacity:1"
         id="rect2274"
         width="29.432146"
         height="29.428205"
         x="-109.75304"
         y="-2.1866333"
         transform="matrix(-0.70703595,-0.70717761,0.70703595,-0.70717761,0,0)" />
      <path
         style="display:inline;fill:url(#linearGradient2460);fill-opacity:1;stroke:none;stroke-width:1.00005;stroke-miterlimit:4;stroke-opacity:1"
         d="M 58.424201,58.34798 C 64.299794,64.225057 70.175386,70.102134 76.050978,75.979211 81.922636,70.106069 87.794299,64.232923 93.665957,58.359781 87.794299,52.482704 81.922636,46.605628 76.050978,40.728551 70.175386,46.601692 64.299794,52.474838 58.424201,58.34798 Z"
         id="rect4407"
         inkscape:connector-curvature="0" />
      <rect
         style="display:inline;fill:#932279;fill-opacity:1;stroke:none;stroke-width:1;stroke-miterlimit:4;stroke-opacity:1"
         id="rect2277"
         width="29.427134"
         height="29.430819"
         x="55.243439"
         y="24.942827" />
      <rect
         style="display:inline;fill:#efa724;fill-opacity:1;stroke:none;stroke-width:1;stroke-miterlimit:4;stroke-opacity:1"
         id="rect2279"
         width="29.427122"
         height="29.43082"
         x="55.243439"
         y="62.123672" />
      <path
         style="display:inline;fill:url(#linearGradient2462);fill-opacity:1;stroke:none;stroke-width:1;stroke-miterlimit:4;stroke-opacity:1"
         d="m 20.339037,52.105061 c 8.270663,0 16.541326,0 24.811989,0 0,-8.272753 0,-16.545506 0,-24.818259 -8.270663,0 -16.541326,0 -24.811989,0 0,8.272753 0,16.545506 0,24.818259 z"
         id="rect4401"
         inkscape:connector-curvature="0" />
      <path
         style="display:inline;fill:url(#linearGradient2464);fill-opacity:1;stroke:none;stroke-width:1;stroke-miterlimit:4;stroke-opacity:1"
         d="m 20.339037,89.291144 c 8.298194,0 16.596384,0 24.894578,0 0,-8.30029 0,-16.600577 0,-24.900868 -8.298194,0 -16.596384,0 -24.894578,0 0,8.300291 0,16.600578 0,24.900868 z"
         id="rect4405"
         inkscape:connector-curvature="0" />
      <path
         style="display:inline;fill:url(#linearGradient2466);fill-opacity:1;stroke:none;stroke-width:1;stroke-miterlimit:4;stroke-opacity:1"
         d="m 57.503928,89.291144 c 8.302124,0 16.604252,0 24.906376,0 0,-8.30029 0,-16.600577 0,-24.900868 -8.302124,0 -16.604252,0 -24.906376,0 0,8.300291 0,16.600578 0,24.900868 z"
         id="rect4411"
         inkscape:connector-curvature="0" />
      <path
         style="display:inline;fill:url(#linearGradient2468);fill-opacity:1;stroke:none;stroke-width:1;stroke-miterlimit:4;stroke-opacity:1"
         d="m 57.503928,52.105061 c 8.302124,0 16.604252,0 24.906376,0 0,-8.300291 0,-16.600578 0,-24.900868 -8.302124,0 -16.604252,0 -24.906376,0 0,8.30029 0,16.600577 0,24.900868 z"
         id="rect4409"
         inkscape:connector-curvature="0" />
      <path
         style="display:inline;fill:url(#radialGradient2470);fill-opacity:1;stroke:none;stroke-width:1.00005;stroke-miterlimit:4;stroke-opacity:1"
         d="m 44.478518,22.766882 c 1.648564,0.05958 4.476165,-0.684241 5.250279,1.097526 0.09674,8.659411 -0.191934,17.432251 0.14158,26.021997 0.542473,1.331923 2.182092,1.339759 2.796216,0.05901 0.724352,-2.31372 0.04846,-5.089679 0.283161,-7.564671 0,-6.565491 0,-13.130978 0,-19.696469 1.684242,-0.186359 3.374272,0.0068 5.061504,0 -2.241692,-2.242258 -4.483384,-4.484516 -6.725075,-6.726775 -2.269223,2.269796 -4.538442,4.539589 -6.807665,6.809385 z m 13.627127,4.307496 c -1.454183,0.02375 -0.149592,2.314615 -0.589919,3.150963 0,4.897564 0,9.795128 0,14.692692 3.779415,-3.78037 7.558827,-7.560736 11.338242,-11.341106 -2.227206,-2.045231 -4.111024,-4.714434 -6.642487,-6.290125 -1.374075,0.173475 -2.733675,-0.269075 -4.105836,-0.212424 z m 15.514867,4.77955 c 1.782046,0.728475 1.147305,2.971239 -0.247766,3.717429 -5.391862,5.145449 -10.606934,10.614981 -15.904213,15.872828 -0.265707,1.401892 1.483613,0.07493 1.923135,-0.306835 5.392286,-5.735601 11.136601,-11.202549 16.671109,-16.828739 2.108406,2.096265 4.21088,4.198482 6.312132,6.301926 0,-4.46878 0,-8.937564 0,-13.406344 -4.471585,0 -8.943171,0 -13.414756,0 1.553452,1.549913 3.106907,3.099822 4.660359,4.649735 z M 41.316553,27.239597 c -2.784583,0.03693 -3.968525,3.304486 -6.041226,4.732802 -3.15531,1.684124 0.633106,3.368248 1.890043,5.052371 2.665818,2.666492 5.331636,5.332984 7.997454,7.999475 -0.06354,-5.848919 0.126683,-11.951676 -0.09439,-17.643032 -1.252516,0.02625 -2.500516,-0.189664 -3.751884,-0.141616 z M 20.350835,40.468921 c 2.047934,-2.046632 4.092157,-4.09707 6.123358,-6.16031 6.021428,5.933924 11.896413,12.182844 18.051519,17.87906 1.472619,0.145906 -0.186539,-1.909702 -0.696104,-2.242259 C 38.14803,44.692278 32.81648,38.961198 27.241088,33.553324 c 2.104079,-2.065057 4.17766,-4.160921 6.264939,-6.242919 -4.385063,0 -8.770129,0 -13.155192,0 0,4.386171 0,8.772345 0,13.158516 z m 44.397297,11.600736 c 5.82781,-0.0478 11.846357,0.0952 17.555987,-0.07081 -0.0012,-2.339324 0.906987,-5.281858 -1.678322,-6.703452 C 79.016014,44.084323 77.405043,41.312846 75.795948,41.007521 72.113344,44.6949 68.430736,48.38228 64.748132,52.069655 Z M 20.409827,46.841655 c 0.313841,1.7054 -0.663239,3.663923 0.117984,5.228002 5.74581,0 11.49162,0 17.23743,0 -3.763682,-3.764634 -7.527365,-7.529267 -11.291048,-11.293901 -2.021456,2.021967 -4.042909,4.043931 -6.064366,6.065899 z M 8.9182067,58.336179 c 2.2888853,2.289463 4.5777703,4.578927 6.8666563,6.868391 0.527491,-1.769709 -1.320127,-5.915125 1.510192,-5.38142 8.534139,-0.103992 17.191887,0.206854 25.649674,-0.153418 1.336909,-0.503206 1.06031,-2.028028 -0.01178,-2.6081 -2.123123,-0.972844 -4.94835,-0.131382 -7.338591,-0.413048 -6.58743,0 -13.174855,0 -19.762284,0 -0.197152,-1.735642 0.02949,-3.478149 -0.01178,-5.2162 -2.300684,2.301265 -4.601368,4.60253 -6.9020515,6.903795 z M 86.95268,54.276511 c 0.614206,1.98349 -1.725259,2.87818 -3.303546,2.407477 -7.827898,-0.15174 -15.728986,0.02765 -23.57316,-0.0236 -1.140629,0.531068 -2.11032,2.132069 -0.637112,2.86773 2.196227,0.77673 4.872549,0.03504 7.232406,0.295034 6.744738,0 13.48948,0 20.234218,0 0.197613,1.74744 -0.03006,3.501677 0.0118,5.251605 2.245626,-2.246193 4.491248,-4.492383 6.736874,-6.738576 -2.233827,-2.234392 -4.467651,-4.46878 -6.701478,-6.703172 0,0.881167 0,1.762337 0,2.643504 z M 57.480331,64.449283 c 0.02498,2.266809 2.851285,3.306714 4.039897,5.067636 4.552558,4.553708 9.105112,9.107413 13.65767,13.661121 -2.017171,2.03017 -4.040059,4.054645 -6.064366,6.0777 4.420458,0 8.840919,0 13.261377,0 0,-4.397972 0,-8.795947 0,-13.193919 -2.101146,2.103549 -4.20387,4.205517 -6.312132,6.301925 -6.075735,-5.989867 -12.030442,-12.207718 -18.181301,-18.056079 -0.142358,0.03769 -0.507515,-0.167429 -0.401145,0.141616 z m -12.447289,-0.07081 c -2.392103,0.781325 -3.402965,3.452115 -5.402498,4.860997 -4.159217,4.105914 -8.281687,8.353323 -12.413053,12.427994 -2.177614,0.672055 -2.943637,-2.251129 -4.589569,-3.080155 -0.823304,-0.774988 -1.501418,-1.677669 -2.277087,-2.501888 0,4.390106 0,8.780212 0,13.170317 4.326071,0 8.652145,0 12.978216,0 -2.024473,-2.022892 -4.046968,-4.047756 -6.064366,-6.0777 5.99979,-6.017073 12.04415,-12.015679 18.016123,-18.044278 0.0038,-0.23565 0.23095,-0.916084 -0.247766,-0.755287 z m -24.682207,5.393221 c 2.052918,2.053437 4.105836,4.106873 6.158753,6.16031 3.846272,-3.847244 7.692543,-7.694487 11.538814,-11.54173 -5.899189,0 -11.798378,0 -17.697567,0 0,1.793807 0,3.587613 0,5.38142 z m 55.688345,6.136707 c 2.003342,-2.220661 4.731452,-4.078346 6.25314,-6.632364 -0.315464,-1.555128 0.67762,-3.462292 -0.0236,-4.838557 -5.89774,-0.112414 -11.824388,-0.01404 -17.732963,-0.04721 3.834473,3.839377 7.668946,7.67875 11.503419,11.518127 z M 51.1564,65.700227 c -2.507867,1.34511 -0.95617,4.732017 -1.38041,7.021809 0,7.03361 0,14.06722 0,21.10083 -1.346563,0.401341 -7.008002,-0.982885 -4.37027,1.067221 1.940491,1.937659 3.880979,3.875313 5.821471,5.812973 2.304617,-2.305201 4.609231,-4.610398 6.913849,-6.915598 -1.667637,-0.03662 -4.353144,0.648131 -5.191286,-1.062122 0,-8.453708 0,-16.907413 0,-25.361121 -0.57009,-0.481107 -1.087063,-1.492991 -1.793354,-1.663992 z M 33.730196,83.142636 c 2.114669,1.975423 3.938989,4.554128 6.382922,6.042296 1.666483,-0.295887 3.571311,0.655257 5.0969,-0.07081 0,-5.814135 0,-11.628274 0,-17.442409 -3.826609,3.82364 -7.653214,7.647281 -11.479822,11.470921 z m 23.78553,6.042296 c 2.386516,-0.03327 5.451236,0.94389 6.914076,-1.678803 0.924419,-1.620543 4.637658,-3.242541 3.784048,-4.862156 -3.566044,-3.566945 -7.132084,-7.133886 -10.698124,-10.700827 0,5.747262 0,11.494524 0,17.241786 z"
         id="rect4282"
         inkscape:connector-curvature="0" />
      <path
         style="display:inline;fill:#ffffff;fill-opacity:1;stroke:none;stroke-width:1.00005;stroke-miterlimit:4;stroke-opacity:1"
         d="M 51.286183,11.650001 50.743457,12.192864 38.697313,24.242052 H 18.06195 17.295055 v 0.778889 20.628776 L 5.1545241,57.793316 4.6000003,58.336179 5.1545241,58.879041 17.295055,71.02264 v 20.510763 0.778889 h 0.766895 20.446589 l 12.164128,12.155398 0.554524,0.55467 0.542725,-0.55467 12.164128,-12.155398 h 20.72975 0.778693 V 91.533403 70.869222 L 97.429639,58.879041 97.972365,58.336179 97.429639,57.793316 85.442487,45.803135 V 24.92653 24.147641 H 84.663794 63.780665 L 51.840706,12.192864 Z m 0,2.183252 10.311782,10.314388 h -6.359326 -0.778693 v 0.778889 25.1723 l -3.173763,3.174566 -3.067579,-3.068354 V 25.020941 24.242052 h -0.778693 -6.559898 z m 4.719351,11.860366 h 7.138019 l 7.857719,7.859705 -14.995738,14.999528 z m 9.320719,0 H 83.885101 V 44.245356 L 76.6173,36.975718 76.062777,36.432856 75.520051,36.975718 58.919733,53.580231 h -2.914199 v -2.832326 l 16.635713,-16.651718 0.554524,-0.542863 -0.554524,-0.542862 z m -46.48561,0.106212 h 18.299284 l -7.208809,7.210631 -0.542725,0.542862 0.542725,0.542863 16.741899,16.746129 v 2.737915 H 43.59364 l -16.564923,-16.569109 -0.554524,-0.554664 -0.542725,0.554664 -7.090825,7.092617 z m 20.481984,0 h 7.35039 V 48.659064 L 31.571093,33.553324 Z m 36.74015,12.816276 7.822324,7.824301 v 7.139823 H 61.114232 Z m -49.588584,0.03538 14.924949,14.92872 H 18.840643 v -7.29324 z m -9.179138,9.181458 v 6.526152 0.778889 H 18.06195 42.956528 L 46.189283,58.371559 43.22789,61.3337 H 18.06195 17.295055 v 0.767089 6.738576 L 6.7944986,58.33616 17.295055,47.83295 Z M 85.442487,47.998164 95.777866,58.336155 85.442487,68.674146 V 62.100789 61.3337 H 84.663794 59.356273 l -2.996788,-2.997545 3.197361,-3.198169 h 25.106948 0.778693 v -0.778889 z m -30.982541,4.295695 v 2.065238 0.778889 h 0.778693 2.123708 l -2.654635,2.655306 -0.542725,0.542863 0.542725,0.542862 2.454063,2.454683 h -1.923136 -0.778693 v 0.767089 2.478285 l -2.69003,-2.69071 -0.542725,-0.542862 -0.554524,0.542862 -2.406869,2.407477 V 62.100789 61.3337 H 47.487105 45.41059 l 2.418668,-2.419279 0.554524,-0.542862 -0.554524,-0.554664 -2.678232,-2.678909 h 2.288885 0.778693 V 54.359097 52.38827 l 2.524853,2.525491 0.542726,0.542862 0.554523,-0.542862 z M 18.840643,62.879678 h 22.84166 L 26.509588,78.056226 18.840643,70.385343 Z m 25.02436,0 h 2.855207 v 2.962141 l -16.789092,16.793335 -0.542725,0.542862 0.542725,0.554664 7.031834,7.03361 H 18.840643 V 72.568594 l 7.12622,7.128021 0.542725,0.542863 0.542726,-0.542863 z m 12.140531,0 h 2.701828 l 16.812689,16.816937 0.542726,0.542863 0.554523,-0.542863 7.267801,-7.269637 V 90.76629 H 65.479631 L 72.511465,83.73268 73.05419,83.178016 72.511465,82.635154 56.005534,66.125052 Z m 4.896327,0 h 22.98324 v 7.352247 l -7.822324,7.824301 z m -9.67467,0.649075 3.232755,3.233572 v 24.771054 0.77889 h 0.778693 6.500907 L 51.227191,102.82728 40.703037,92.312269 h 6.784068 0.778693 V 91.533379 66.490894 Z M 46.72021,68.036872 V 90.76629 h -7.56276 l -7.586357,-7.588274 z m 9.285324,0.271432 14.865956,14.869712 -7.586357,7.588274 h -7.279599 z"
         id="path2289"
         inkscape:connector-curvature="0" />
    </g>
  </g>
</svg>
