<?xml version="1.0" encoding="UTF-8" standalone="no"?>
<svg
   version="1.0"
   width="24"
   height="24"
   id="svg2"
   sodipodi:docname="fedora.svg"
   inkscape:version="1.2.2 (b0a8486541, 2022-12-01)"
   xmlns:inkscape="http://www.inkscape.org/namespaces/inkscape"
   xmlns:sodipodi="http://sodipodi.sourceforge.net/DTD/sodipodi-0.dtd"
   xmlns:xlink="http://www.w3.org/1999/xlink"
   xmlns="http://www.w3.org/2000/svg"
   xmlns:svg="http://www.w3.org/2000/svg">
  <sodipodi:namedview
     id="namedview199"
     pagecolor="#ffffff"
     bordercolor="#000000"
     borderopacity="0.25"
     inkscape:showpageshadow="2"
     inkscape:pageopacity="0.0"
     inkscape:pagecheckerboard="0"
     inkscape:deskcolor="#d1d1d1"
     showgrid="false"
     inkscape:zoom="3.0262172"
     inkscape:cx="120.61262"
     inkscape:cy="133.5"
     inkscape:window-width="1920"
     inkscape:window-height="1011"
     inkscape:window-x="0"
     inkscape:window-y="0"
     inkscape:window-maximized="1"
     inkscape:current-layer="svg2" />
  <defs
     id="defs5" />
  <g
     id="g1063"
     transform="matrix(0.48143323,0,0,0.48143323,0.5077998,0.50717346)">
    <path
       d="M 47.367366,23.873191 C 47.367366,10.896131 36.847404,0.37583 23.870441,0.37583 10.899313,0.37583 0.38345266,10.887297 0.37425,23.856621 V 42.03973 c 0.006981,2.944768 2.3953028,5.328658 5.3419214,5.328658 H 23.879972 c 12.97263,-0.0051 23.487394,-10.521589 23.487394,-23.495197"
       id="voice"
       style="fill:#294172;stroke-width:0.176499" />
    <path
       d="m 13.920906,25.389569 c 0,0 8.444549,0 8.444549,0 0,0 0,8.444555 0,8.444555 0,4.661389 -3.783158,8.444546 -8.444549,8.444546 -4.6613926,0 -8.4445508,-3.783157 -8.4445508,-8.444546 0,-4.661393 3.7831582,-8.444555 8.4445508,-8.444555 z"
       id="in"
       style="fill:none;stroke:#3c6eb4;stroke-width:5.15553" />
    <use
       transform="rotate(180,22.345108,25.397784)"
       id="finity"
       xlink:href="#in" />
    <path
       d="m 24.948758,22.818274 v 11.004037 c 0,6.089924 -4.937624,11.027656 -11.027764,11.027656 -0.923961,0 -1.580811,-0.104313 -2.4361,-0.327883 -1.247133,-0.326367 -2.2663282,-1.348898 -2.2667518,-2.538251 0,-1.437607 1.0435258,-2.483323 2.6034108,-2.483323 0.74242,0 1.011811,0.14255 2.099441,0.14255 3.210801,0 5.815225,-2.600746 5.820857,-5.811545 V 28.77366 c 0,-0.453205 -0.368288,-0.820411 -0.822251,-0.820411 l -3.823887,-7.06e-4 c -1.424721,0 -2.575828,-1.136376 -2.575828,-2.565 -7.58e-4,-1.437506 1.162917,-2.569219 2.603021,-2.569219"
       id="free"
       style="fill:#ffffff;stroke-width:0.176499" />
    <use
       transform="rotate(180,22.345108,25.397784)"
       id="dom"
       xlink:href="#free" />
    <path
       d="m 43.312974,43.301866 c 0,0 7e-6,-0.976285 7e-6,-0.976285 l -0.446283,1.023299 c 0,0 -0.434436,-1.023299 -0.434436,-1.023299 l 8.3e-5,0.976285 h -0.250328 v -1.541705 h 0.262461 c 0,0 0.429593,0.984955 0.429593,0.984955 l 0.423087,-0.984955 h 0.265709 v 1.541705 z m -1.823767,-1.283472 v 1.283472 h -0.261594 v -1.283472 h -0.438579 v -0.258233 h 1.138323 v 0.258233"
       id="TM"
       style="fill:#3c6eb4;stroke-width:0.176499" />
  </g>
</svg>
