<?xml version="1.0" encoding="UTF-8" standalone="no"?>
<svg
   width="24"
   height="24"
   viewBox="0 0 0.72 0.72"
   version="1.1"
   id="svg4"
   sodipodi:docname="freebsd.svg"
   inkscape:version="1.2.2 (b0a8486541, 2022-12-01)"
   xmlns:inkscape="http://www.inkscape.org/namespaces/inkscape"
   xmlns:sodipodi="http://sodipodi.sourceforge.net/DTD/sodipodi-0.dtd"
   xmlns="http://www.w3.org/2000/svg"
   xmlns:svg="http://www.w3.org/2000/svg">
  <defs
     id="defs8" />
  <sodipodi:namedview
     id="namedview6"
     pagecolor="#ffffff"
     bordercolor="#000000"
     borderopacity="0.25"
     inkscape:showpageshadow="2"
     inkscape:pageopacity="0.0"
     inkscape:pagecheckerboard="0"
     inkscape:deskcolor="#d1d1d1"
     showgrid="false"
     inkscape:zoom="4.3274935"
     inkscape:cx="97.747114"
     inkscape:cy="43.905323"
     inkscape:window-width="1920"
     inkscape:window-height="1011"
     inkscape:window-x="0"
     inkscape:window-y="0"
     inkscape:window-maximized="1"
     inkscape:current-layer="svg4" />
  <path
     fill="#9b2718"
     fill-rule="evenodd"
     d="m 0.69385112,0.03507851 c 0.0362236,0.03620667 -0.0641961,0.19536698 -0.0811728,0.21234363 -0.0169766,0.0169512 -0.060096,0.001355 -0.0963112,-0.0348597 -0.0362235,-0.0362067 -0.0518278,-0.0793345 -0.0348512,-0.0963112 0.0169767,-0.01698511 0.17611999,-0.11739639 0.21233517,-0.08117276 z M 0.18589016,0.07338609 C 0.13058899,0.04200809 0.0519068,0.00710601 0.02687387,0.03213893 0.00150209,0.05749377 0.03769182,0.13795495 0.06939174,0.19335778 0.09760143,0.14430002 0.13774731,0.10300203 0.18589016,0.07338609 Z m 0.4527191,0.16154923 c 0.005091,0.0172732 0.00417,0.0315474 -0.004082,0.0397816 -0.0192977,0.0192978 -0.0714053,-0.001237 -0.11837064,-0.0459488 -0.003288,-0.00294 -0.006531,-0.005989 -0.009725,-0.009191 -0.0169775,-0.0169936 -0.0302013,-0.0350884 -0.0386473,-0.0517347 -0.0164514,-0.0295058 -0.0205685,-0.0555807 -0.008133,-0.0680082 0.006777,-0.0067771 0.0176205,-0.0086239 0.0308443,-0.0062349 0.008632,-0.0054471 0.0188065,-0.01152955 0.0299717,-0.01775601 -0.0453981,-0.02367803 -0.0970057,-0.03705435 -0.15176476,-0.03705435 -0.18159252,0 -0.32881665,0.14719873 -0.32881665,0.32881665 0,0.18158409 0.14722413,0.32879976 0.32881665,0.32879976 0.18160103,0 0.32882513,-0.14721567 0.32882513,-0.32879976 0,-0.0586474 -0.0153927,-0.11364356 -0.0422891,-0.16132049 -0.00582,0.0105977 -0.0114701,0.0203143 -0.0166293,0.0286502 z"
     id="path2"
     style="stroke-width:0.0284725" />
</svg>
