<?xml version="1.0" encoding="UTF-8" standalone="no"?>
<!-- Created with Inkscape (http://www.inkscape.org/) -->

<svg
   width="24"
   height="24"
   viewBox="0 0 24 24"
   version="1.1"
   id="svg8"
   sodipodi:docname="linuxmint.svg"
   inkscape:version="1.2.2 (b0a8486541, 2022-12-01)"
   xmlns:inkscape="http://www.inkscape.org/namespaces/inkscape"
   xmlns:sodipodi="http://sodipodi.sourceforge.net/DTD/sodipodi-0.dtd"
   xmlns="http://www.w3.org/2000/svg"
   xmlns:svg="http://www.w3.org/2000/svg">
  <sodipodi:namedview
     id="namedview10"
     pagecolor="#ffffff"
     bordercolor="#000000"
     borderopacity="0.25"
     inkscape:showpageshadow="2"
     inkscape:pageopacity="0.0"
     inkscape:pagecheckerboard="0"
     inkscape:deskcolor="#d1d1d1"
     showgrid="false"
     inkscape:zoom="17.854446"
     inkscape:cx="18.090732"
     inkscape:cy="16.914554"
     inkscape:window-width="1920"
     inkscape:window-height="1011"
     inkscape:window-x="0"
     inkscape:window-y="0"
     inkscape:window-maximized="1"
     inkscape:current-layer="svg8" />
  <defs
     id="defs2" />
  <g
     id="layer1"
     transform="matrix(0.09063523,0,0,0.09063523,0.39869035,0.39869152)">
    <g
       id="g1214"
       transform="matrix(0.57255348,0,0,0.57255348,-62.771996,153.53453)">
      <g
         id="g969"
         transform="matrix(10.07874,0,0,10.07874,-995.34917,-2346.4804)"
         style="stroke-width:0.0992187">
        <path
           id="rect1013-2"
           transform="scale(0.26458333)"
           d="m 414.36914,788.04883 v 48.05664 h 19.76953 V 845.75 l 0.0254,37.82422 c 0,31.15105 27.05922,54.78906 58.23828,54.78906 h 89.63672 V 843.2832 c 0,-31.17906 -27.02926,-54.78515 -58.23633,-54.78515 l -26.07617,-0.0586 z"
           style="opacity:1;fill:#87cf3e;fill-opacity:1;stroke:none;stroke-width:0.652859;stroke-miterlimit:4;stroke-dasharray:none;stroke-opacity:1" />
        <g
           id="layer3-2-3-6"
           transform="matrix(0.12154991,0,0,0.12154991,111.42789,203.16749)"
           style="stroke-width:0.0992187">
          <path
             style="color:#000000;font-style:normal;font-variant:normal;font-weight:normal;font-stretch:normal;font-size:medium;line-height:normal;font-family:sans-serif;font-variant-ligatures:normal;font-variant-position:normal;font-variant-caps:normal;font-variant-numeric:normal;font-variant-alternates:normal;font-feature-settings:normal;text-indent:0;text-align:start;text-decoration:none;text-decoration-line:none;text-decoration-style:solid;text-decoration-color:#000000;letter-spacing:normal;word-spacing:normal;text-transform:none;writing-mode:lr-tb;direction:ltr;text-orientation:mixed;dominant-baseline:auto;baseline-shift:baseline;text-anchor:start;white-space:normal;shape-padding:0;clip-rule:nonzero;display:inline;overflow:visible;visibility:visible;opacity:1;isolation:auto;mix-blend-mode:normal;color-interpolation:sRGB;color-interpolation-filters:linearRGB;solid-color:#000000;solid-opacity:1;vector-effect:none;fill:#505050;fill-opacity:1;fill-rule:nonzero;stroke:none;stroke-width:3.175;stroke-linecap:butt;stroke-linejoin:miter;stroke-miterlimit:4;stroke-dasharray:none;stroke-dashoffset:0;stroke-opacity:1;color-rendering:auto;image-rendering:auto;shape-rendering:auto;text-rendering:auto;enable-background:accumulate"
             d="m 80,104 v 144 c 0,35.15671 28.84329,64 64,64 h 96 c 35.15671,0 64,-28.84329 64,-64 v -80 c 0,-26.32015 -21.67985,-48 -48,-48 -12.29591,0 -23.46684,4.8602 -32,12.58594 C 215.46684,124.8602 204.29591,120 192,120 c -26.32015,0 -48,21.67985 -48,48 v 80 h 32 v -80 c 0,-9.02607 6.97393,-16 16,-16 9.02607,0 16,6.97393 16,16 v 80 h 32 v -80 c 0,-9.02607 6.97393,-16 16,-16 9.02607,0 16,6.97393 16,16 v 80 c 0,17.86263 -14.13737,32 -32,32 h -96 c -17.86263,0 -32,-14.13737 -32,-32 V 104 Z"
             id="path4193-6-7-1" />
        </g>
      </g>
    </g>
  </g>
</svg>
