<?xml version="1.0" encoding="UTF-8" standalone="no"?>
<svg
   width="24"
   height="24"
   viewBox="0 0 0.96 0.96"
   version="1.1"
   id="svg649"
   sodipodi:docname="powershell.svg"
   inkscape:version="1.2.2 (b0a8486541, 2022-12-01)"
   xmlns:inkscape="http://www.inkscape.org/namespaces/inkscape"
   xmlns:sodipodi="http://sodipodi.sourceforge.net/DTD/sodipodi-0.dtd"
   xmlns:xlink="http://www.w3.org/1999/xlink"
   xmlns="http://www.w3.org/2000/svg"
   xmlns:svg="http://www.w3.org/2000/svg"
   xmlns:rdf="http://www.w3.org/1999/02/22-rdf-syntax-ns#"
   xmlns:cc="http://creativecommons.org/ns#"
   xmlns:dc="http://purl.org/dc/elements/1.1/">
  <sodipodi:namedview
     id="namedview651"
     pagecolor="#ffffff"
     bordercolor="#000000"
     borderopacity="0.25"
     inkscape:showpageshadow="2"
     inkscape:pageopacity="0.0"
     inkscape:pagecheckerboard="0"
     inkscape:deskcolor="#d1d1d1"
     showgrid="false"
     inkscape:zoom="16.16"
     inkscape:cx="11.262376"
     inkscape:cy="9.0346535"
     inkscape:window-width="1920"
     inkscape:window-height="1043"
     inkscape:window-x="0"
     inkscape:window-y="0"
     inkscape:window-maximized="1"
     inkscape:current-layer="svg649" />
  <defs
     id="defs633">
    <linearGradient
       id="a"
       x1="23.325001"
       y1="-118.543"
       x2="7.2600002"
       y2="-104.193"
       gradientTransform="matrix(1,0,0,-1,0,-96)"
       gradientUnits="userSpaceOnUse">
      <stop
         offset="0"
         stop-color="#5391fe"
         id="stop627" />
      <stop
         offset="1"
         stop-color="#3e6dbf"
         id="stop629" />
    </linearGradient>
    <linearGradient
       id="b"
       x1="7.0999999"
       y1="-104.002"
       x2="23.000999"
       y2="-118.292"
       xlink:href="#a" />
    <linearGradient
       inkscape:collect="always"
       xlink:href="#a"
       id="linearGradient772"
       gradientUnits="userSpaceOnUse"
       gradientTransform="matrix(1,0,0,-1,0,-96)"
       x1="23.325001"
       y1="-118.543"
       x2="7.2600002"
       y2="-104.193" />
  </defs>
  <title
     id="title635">file_type_powershell</title>
  <g
     id="g803"
     transform="matrix(0.03405546,0,0,0.03405546,-0.06488585,-0.06487923)">
    <path
       d="M 3.174,26.589 A 1.154,1.154 0 0 1 2.246,26.166 1.234,1.234 0 0 1 2.036,25.114 L 6.233,6.78 A 1.8,1.8 0 0 1 7.914,5.41 h 20.912 a 1.157,1.157 0 0 1 0.928,0.423 1.235,1.235 0 0 1 0.21,1.052 l -4.2,18.335 a 1.8,1.8 0 0 1 -1.681,1.37 H 3.174 Z"
       style="fill:url(#linearGradient772);fill-rule:evenodd"
       id="path637" />
    <path
       d="m 7.914,5.646 h 20.912 a 0.913,0.913 0 0 1 0.908,1.187 l -4.2,18.334 a 1.575,1.575 0 0 1 -1.451,1.187 H 3.174 A 0.913,0.913 0 0 1 2.266,25.167 L 6.466,6.833 A 1.574,1.574 0 0 1 7.914,5.646 Z"
       style="fill:url(#b);fill-rule:evenodd"
       id="path639" />
    <path
       d="m 16.04,21.544 h 5.086 a 1.118,1.118 0 0 1 0,2.234 H 16.04 a 1.118,1.118 0 0 1 0,-2.234 z"
       style="fill:#2c5591;fill-rule:evenodd"
       id="path641" />
    <path
       d="m 19.339,16.578 a 1.762,1.762 0 0 1 -0.591,0.6 L 9.309,23.953 A 1.224,1.224 0 0 1 7.871,21.976 l 8.512,-6.164 V 15.686 L 11.035,10 a 1.224,1.224 0 0 1 1.782,-1.672 l 6.418,6.827 a 1.166,1.166 0 0 1 0.104,1.423 z"
       style="fill:#2c5591;fill-rule:evenodd"
       id="path643" />
    <path
       d="m 19.1,16.342 a 1.749,1.749 0 0 1 -0.59,0.6 L 9.074,23.718 A 1.225,1.225 0 0 1 7.635,21.741 l 8.513,-6.164 V 15.45 L 10.8,9.761 A 1.224,1.224 0 0 1 12.583,8.089 L 19,14.916 a 1.162,1.162 0 0 1 0.1,1.426 z"
       style="fill:#ffffff;fill-rule:evenodd"
       id="path645" />
    <path
       d="m 15.9,21.412 h 5.086 a 1.059,1.059 0 1 1 0,2.118 H 15.9 a 1.059,1.059 0 1 1 0,-2.118 z"
       style="fill:#ffffff;fill-rule:evenodd"
       id="path647" />
  </g>
  <metadata
     id="metadata770">
    <rdf:RDF>
      <cc:Work
         rdf:about="">
        <dc:title>file_type_powershell</dc:title>
      </cc:Work>
    </rdf:RDF>
  </metadata>
</svg>
