<?xml version="1.0" encoding="UTF-8" standalone="no"?>
<svg
   width="24"
   height="24"
   version="1.1"
   id="svg10"
   sodipodi:docname="gnome-mime-text-x-readme-svgrepo-com.svg"
   inkscape:version="1.2.2 (b0a8486541, 2022-12-01)"
   xmlns:inkscape="http://www.inkscape.org/namespaces/inkscape"
   xmlns:sodipodi="http://sodipodi.sourceforge.net/DTD/sodipodi-0.dtd"
   xmlns="http://www.w3.org/2000/svg"
   xmlns:svg="http://www.w3.org/2000/svg"
   xmlns:rdf="http://www.w3.org/1999/02/22-rdf-syntax-ns#"
   xmlns:cc="http://creativecommons.org/ns#"
   xmlns:dc="http://purl.org/dc/elements/1.1/">
  <defs
     id="defs14" />
  <sodipodi:namedview
     id="namedview12"
     pagecolor="#ffffff"
     bordercolor="#000000"
     borderopacity="0.25"
     inkscape:showpageshadow="2"
     inkscape:pageopacity="0.0"
     inkscape:pagecheckerboard="0"
     inkscape:deskcolor="#d1d1d1"
     showgrid="false"
     inkscape:zoom="6.3125"
     inkscape:cx="48.792079"
     inkscape:cy="51.485149"
     inkscape:window-width="1920"
     inkscape:window-height="1011"
     inkscape:window-x="0"
     inkscape:window-y="0"
     inkscape:window-maximized="1"
     inkscape:current-layer="svg10" />
  <title
     id="title2">Readme File Icon</title>
  <desc
     id="desc4">This is shape (source) for Clarity vector icon theme for gtk</desc>
  <metadata
     id="metadata6">
    <rdf:RDF>
      <cc:Work
         rdf:about="">
        <dc:title>Readme File Icon</dc:title>
        <dc:description>This is shape (source) for Clarity vector icon theme for gtk</dc:description>
        <dc:creator>
          <cc:Agent>
            <dc:title>Jakub Jankiewicz</dc:title>
          </cc:Agent>
        </dc:creator>
        <dc:rights>
          <cc:Agent>
            <dc:title>Jakub Jankiewicz</dc:title>
          </cc:Agent>
        </dc:rights>
        <dc:date>2010</dc:date>
        <dc:format>image/svg+xml</dc:format>
        <dc:type
           rdf:resource="http://purl.org/dc/dcmitype/StillImage" />
        <cc:license
           rdf:resource="http://creativecommons.org/licenses/by-sa/3.0/" />
      </cc:Work>
    </rdf:RDF>
  </metadata>
  <path
     d="M 4.1864851,0.39073397 C 3.5477852,0.45535284 3.0584776,0.99934825 3.0584776,1.6563033 V 22.34561 c 0,0.700752 0.5579378,1.26557 1.2586912,1.26557 H 19.68283 c 0.700752,0 1.258692,-0.564818 1.258692,-1.26557 V 6.8011176 h -4.628958 c -0.94777,0 -1.774548,-0.691355 -1.774548,-1.609474 V 0.39073397 H 4.3171688 c -0.043797,0 -0.088104,-0.004307 -0.1306837,0 z m 11.2319269,0 V 5.1916436 c 0,0.3772765 0.359195,0.729078 0.894152,0.729078 h 4.628958 z M 13.410009,9.3047438 c 0.258067,9.5e-6 0.457797,0.095404 0.605272,0.2751238 0.147465,0.1751294 0.192858,0.3907477 0.137562,0.6534184 -0.0507,0.267297 -0.184608,0.496603 -0.405808,0.680931 -0.221209,0.179737 -0.468671,0.268254 -0.735956,0.268246 -0.267292,8e-6 -0.469292,-0.08624 -0.61215,-0.261367 -0.138256,-0.179721 -0.17911,-0.406756 -0.123806,-0.674054 0.0553,-0.2764967 0.186939,-0.4989231 0.39893,-0.6740525 0.216592,-0.175111 0.464054,-0.2682362 0.735956,-0.2682457 z m 0.09629,2.7374812 c 0.198158,7e-6 0.275326,0.10448 0.233855,0.302636 -0.01844,0.08757 -0.05929,0.219207 -0.123806,0.398929 -0.05991,0.175127 -0.0985,0.306767 -0.116927,0.39893 -0.05991,0.304162 -0.159848,0.762702 -0.28888,1.375619 -0.12904,0.608316 -0.222096,1.064587 -0.282002,1.36874 -0.147474,0.718918 -0.23826,1.211503 -0.275124,1.478791 -0.04609,0.308766 0.01973,0.517643 0.199465,0.619028 0.170508,0.04148 0.340733,0.0846 0.515857,0.130684 0.175116,0.04148 0.252353,0.15042 0.220099,0.330148 -0.0507,0.248856 -0.466114,0.371417 -1.244935,0.371417 -0.847953,0 -1.567574,-0.01362 -2.152843,-0.04127 -0.2857207,-0.01382 -0.4060127,-0.122767 -0.3645359,-0.330147 0.036867,-0.184336 0.1594283,-0.29782 0.3714169,-0.343904 0.350239,-0.07834 0.545499,-0.123736 0.57776,-0.137562 0.225811,-0.11521 0.371069,-0.353594 0.440198,-0.708444 0.05069,-0.262679 0.130129,-0.655399 0.240733,-1.176154 0.1106,-0.520749 0.190038,-0.906592 0.240734,-1.169276 0.129033,-0.640567 0.206202,-1.067333 0.233855,-1.279325 0.04147,-0.30876 -0.103786,-0.49948 -0.440198,-0.564004 -0.331809,-0.06451 -0.474798,-0.196153 -0.43332,-0.39893 0.03153,-0.171168 0.152478,-0.272354 0.364539,-0.302636 -0.0025,0.0071 0.16907,0.01376 0.515857,0.01376 0.179726,6e-6 0.447615,-0.05447 0.797858,-0.165075 0.354846,-0.110596 0.613656,-0.171945 0.770347,-0.171952 z"
     id="path8"
     style="stroke-width:0.220099" />
</svg>
