<?xml version="1.0" encoding="UTF-8" standalone="no"?>
<svg
   id="Layer_2"
   viewBox="0 0 24.000001 24"
   version="1.1"
   sodipodi:docname="truenas.svg"
   width="24"
   height="24"
   inkscape:version="1.2.2 (b0a8486541, 2022-12-01)"
   xmlns:inkscape="http://www.inkscape.org/namespaces/inkscape"
   xmlns:sodipodi="http://sodipodi.sourceforge.net/DTD/sodipodi-0.dtd"
   xmlns="http://www.w3.org/2000/svg"
   xmlns:svg="http://www.w3.org/2000/svg">
  <sodipodi:namedview
     id="namedview62"
     pagecolor="#ffffff"
     bordercolor="#000000"
     borderopacity="0.25"
     inkscape:showpageshadow="2"
     inkscape:pageopacity="0.0"
     inkscape:pagecheckerboard="0"
     inkscape:deskcolor="#d1d1d1"
     showgrid="false"
     inkscape:zoom="3.9001561"
     inkscape:cx="71.279198"
     inkscape:cy="48.972399"
     inkscape:window-width="1920"
     inkscape:window-height="1011"
     inkscape:window-x="0"
     inkscape:window-y="0"
     inkscape:window-maximized="1"
     inkscape:current-layer="Layer_2" />
  <defs
     id="defs4">
    <style
       id="style2">.cls-1{fill:#31beec;}.cls-1,.cls-2,.cls-3,.cls-4{stroke-width:0px;}.cls-2{fill:#aeadae;}.cls-3{fill:#aeadae;}.cls-4{fill:#0095d5;}</style>
  </defs>
  <g
     id="g325"
     transform="matrix(0.48846677,0,0,0.48846677,0.27679751,0.27679752)">
    <g
       id="g391"
       transform="matrix(0.61752823,0,0,0.61752823,1.2556408,0.96794246)">
      <path
         id="type_CompoundPathItem_"
         class="cls-4"
         d="m 9.9289039,60.119048 v 1.614367 H 5.5803457 V 74.403919 H 3.801132 V 61.736257 H -0.54742678 V 60.12189 H 9.9289039 Z" />
      <path
         id="type_CompoundPathItem_-2"
         class="cls-4"
         d="m 15.539397,66.289453 c -0.434855,-0.599703 -0.97203,-0.869711 -1.739423,-0.869711 -1.264777,0 -2.21407,0.952135 -2.21407,2.503974 v 6.480203 H 9.9289039 v -10.34843 h 1.6570001 v 1.014663 c 0.434856,-0.72476 1.13972,-1.179511 2.401655,-1.179511 1.406886,0 2.299336,0.477489 2.961567,1.406886 l -1.406887,0.994769 z" />
      <path
         id="type_CompoundPathItem_-3"
         class="cls-4"
         d="m 26.285737,74.406762 h -1.656999 v -1.014664 c -0.51728,0.787288 -1.24204,1.179511 -2.773983,1.179511 -2.21407,0 -3.768751,-1.159615 -3.768751,-4.058654 v -6.460309 h 1.657 v 6.440414 c 0,2.091854 1.13972,2.546606 2.359022,2.546606 1.551838,0 2.526712,-1.097088 2.526712,-2.526711 v -6.460309 h 1.656999 v 10.351273 z" />
      <path
         id="type_CompoundPathItem_-4"
         class="cls-4"
         d="m 36.096994,72.832186 c -0.724759,1.261934 -1.821847,1.739423 -3.623798,1.739423 -2.773983,0 -4.430982,-1.801951 -4.430982,-4.678252 v -1.367096 c 0,-2.938829 1.386991,-4.638462 4.098445,-4.638462 2.711454,0 4.098445,1.676895 4.098445,4.638462 v 1.077192 h -6.542733 v 0.289904 c 0,1.779213 0.849816,3.188942 2.648926,3.188942 1.344358,0 2.029328,-0.392223 2.464183,-1.159616 l 1.284673,0.909503 z m -6.397781,-4.678252 h 4.865838 c -0.08242,-1.739424 -0.849816,-2.773983 -2.42155,-2.773983 -1.571734,0 -2.339127,1.057297 -2.444288,2.773983 z" />
      <path
         id="type_CompoundPathItem_-5"
         class="cls-4"
         d="M 49.162566,60.119048 V 74.403919 H 47.030919 L 41.212946,64.69214 v 9.711779 H 38.893714 V 60.119048 h 2.069118 l 5.880502,9.833995 v -9.833995 z" />
      <path
         id="type_CompoundPathItem_-6"
         class="cls-4"
         d="M 50.776932,74.406762 55.745091,60.12189 h 2.276598 l 4.968157,14.284872 h -2.546607 l -0.974873,-2.961568 h -5.155742 l -0.972032,2.961568 H 50.77409 Z m 4.200766,-5.030684 h 3.808541 l -1.90427,-5.775341 z" />
      <path
         id="type_CompoundPathItem_-7"
         class="cls-4"
         d="m 71.85181,63.577999 c -0.704865,-0.97203 -1.469416,-1.551838 -3.083781,-1.551838 -1.469416,0 -2.339128,0.662231 -2.339128,1.86448 0,1.367096 1.077195,1.904271 3.06389,2.339127 2.879139,0.622441 4.368452,1.69679 4.368452,4.266135 0,2.131644 -1.429627,4.098444 -4.865841,4.098444 -2.444289,0 -4.160972,-0.744656 -5.343325,-2.339127 l 1.884375,-1.304566 c 0.849814,1.014662 1.696789,1.551837 3.333898,1.551837 1.966798,0 2.589239,-0.869712 2.589239,-1.90427 0,-1.13972 -0.642338,-1.841742 -3.126416,-2.381759 -2.754086,-0.579808 -4.305926,-1.904271 -4.305926,-4.328663 0,-2.154384 1.40689,-3.953494 4.763519,-3.953494 2.276595,0 3.87107,0.767393 4.885732,2.339127 l -1.821848,1.304567 z" />
    </g>
    <g
       id="logoMark"
       transform="matrix(0.61752823,0,0,0.61752823,1.2556408,0.96794246)">
      <a
         id="a25">
        <polygon
           id="logoMark_PathItem_"
           class="cls-1"
           points="74.21,23.3 74.21,39.11 40.36,58.67 40.36,42.85 " />
      </a>
      <a
         id="a28">
        <path
           id="logoMark_PathItem_-2"
           class="cls-4"
           d="M 33.88,42.85 V 58.66 L 0,39.11 V 23.3 l 15.31,8.83 c 0,0 0.03,0.02 0.06,0.03 z" />
      </a>
      <a
         id="a31">
        <polygon
           id="logoMark_PathItem_-3"
           class="cls-2"
           points="50.81,29.34 37.12,37.25 23.41,29.34 37.12,21.43 " />
      </a>
      <a
         id="a34">
        <polygon
           id="logoMark_PathItem_-4"
           class="cls-4"
           points="70.98,17.7 57.28,25.61 40.36,15.82 40.36,0 " />
      </a>
      <a
         id="a37">
        <polygon
           id="logoMark_PathItem_-5"
           class="cls-1"
           points="33.88,0 33.88,15.82 16.93,25.6 3.23,17.7 " />
      </a>
    </g>
  </g>
</svg>
