<?xml version="1.0" encoding="UTF-8" standalone="no"?>
<!-- Created with Inkscape (http://www.inkscape.org/) -->

<svg
   width="24"
   height="24"
   viewBox="0 0 6.35 6.35"
   version="1.1"
   id="svg8"
   inkscape:version="1.2.2 (b0a8486541, 2022-12-01)"
   sodipodi:docname="macos.svg"
   xmlns:inkscape="http://www.inkscape.org/namespaces/inkscape"
   xmlns:sodipodi="http://sodipodi.sourceforge.net/DTD/sodipodi-0.dtd"
   xmlns="http://www.w3.org/2000/svg"
   xmlns:svg="http://www.w3.org/2000/svg"
   xmlns:rdf="http://www.w3.org/1999/02/22-rdf-syntax-ns#"
   xmlns:cc="http://creativecommons.org/ns#"
   xmlns:dc="http://purl.org/dc/elements/1.1/">
  <defs
     id="defs2" />
  <sodipodi:namedview
     id="base"
     pagecolor="#ffffff"
     bordercolor="#666666"
     borderopacity="1.0"
     inkscape:pageopacity="0.0"
     inkscape:pageshadow="2"
     inkscape:zoom="13.010765"
     inkscape:cx="25.440472"
     inkscape:cy="29.590881"
     inkscape:document-units="px"
     inkscape:current-layer="layer1"
     showgrid="false"
     inkscape:snap-global="false"
     units="px"
     fit-margin-top="0"
     fit-margin-left="0"
     fit-margin-right="0"
     fit-margin-bottom="0"
     inkscape:window-width="1920"
     inkscape:window-height="1011"
     inkscape:window-x="0"
     inkscape:window-y="0"
     inkscape:window-maximized="1"
     inkscape:showpageshadow="2"
     inkscape:pagecheckerboard="0"
     inkscape:deskcolor="#d1d1d1" />
  <metadata
     id="metadata5">
    <rdf:RDF>
      <cc:Work
         rdf:about="">
        <dc:format>image/svg+xml</dc:format>
        <dc:type
           rdf:resource="http://purl.org/dc/dcmitype/StillImage" />
      </cc:Work>
    </rdf:RDF>
  </metadata>
  <g
     inkscape:label="Layer 1"
     inkscape:groupmode="layer"
     id="layer1"
     transform="translate(-18.031819,-28.359539)">
    <g
       id="g854"
       transform="matrix(0.06203183,0,0,0.06203183,15.470254,23.927597)">
      <path
         style="fill:#41a4f3;stroke-width:0.264583"
         d="m 73.219329,172.50201 c -2.056757,-0.65738 -4.735708,-2.29108 -6.738395,-4.10927 -4.536342,-4.11843 -10.607256,-13.45419 -13.514958,-20.7831 -2.251136,-5.67401 -3.411696,-10.77421 -3.759531,-16.52162 -0.712001,-11.76466 1.855007,-19.59176 8.586166,-26.1802 4.803063,-4.70122 10.831374,-7.301405 16.903688,-7.291055 3.29769,0.006 4.819171,0.31773 10.902569,2.23647 7.602907,2.398005 9.629819,2.402065 16.528902,0.033 5.1899,-1.78212 7.65073,-2.27409 11.37501,-2.27409 4.73362,0 9.00815,1.38036 13.36617,4.316285 1.76226,1.18721 5.42806,4.60824 5.41666,5.05498 -0.004,0.15731 -0.72886,0.76228 -1.61076,1.34436 -2.75204,1.81643 -5.0256,4.49809 -6.68182,7.8812 -1.95912,4.00183 -2.39855,5.8475 -2.37567,9.97817 0.0204,3.67959 0.5617,6.25634 1.92749,9.17513 2.15646,4.60851 6.03914,8.55668 10.47649,10.65323 0.94113,0.44466 1.71115,0.93574 1.71115,1.0913 0,0.61936 -3.86349,7.84659 -5.61622,10.50595 -5.30612,8.05083 -9.09412,12.03064 -13.54413,14.22996 -1.69981,0.84009 -2.29823,0.9936 -4.30537,1.10448 -2.76753,0.15288 -4.51152,-0.23708 -8.07672,-1.80597 -3.5213,-1.54958 -6.064646,-2.08787 -9.864856,-2.08787 -3.766767,0 -6.179958,0.50734 -10.005899,2.10358 -1.428662,0.59606 -3.269379,1.25874 -4.090484,1.47261 -2.031056,0.52902 -5.13175,0.47259 -7.009482,-0.12756 z M 91.282485,94.228175 c 0,-9.25937 7.634668,-18.38412 17.861665,-21.34779 3.17239,-0.91932 3.50306,-0.89502 3.72228,0.27356 0.58643,3.12592 -1.42059,9.79836 -4.14785,13.78975 -1.1987,1.75432 -3.52817,4.17879 -5.22845,5.44167 -3.1096,2.30964 -7.982246,4.16847 -10.927051,4.16847 h -1.280594 z"
         id="path832"
         inkscape:connector-curvature="0" />
      <path
         sodipodi:nodetypes="csssccccccccssscscc"
         style="fill:#1d87e4;stroke-width:0.264583"
         d="m 73.640498,172.62888 c -4.165645,-1.12028 -8.357735,-4.6707 -12.783312,-10.8266 -5.452046,-7.58371 -9.024825,-15.5732 -10.809509,-24.17236 -0.859535,-4.1415 -0.950236,-3.90875 2.197997,-5.64025 6.56695,-3.61177 13.612725,-5.524 21.857218,-5.93207 2.142852,-0.10607 7.936272,-0.0367 13.35416,0.15998 7.642077,0.27737 10.262084,0.28199 13.008928,0.0229 8.64148,-0.81496 15.60562,-3.60785 21.6654,-8.76878 1.07448,-0.9151 1.69043,-1.25748 1.58156,-0.90014 -0.0874,0.28671 -0.63675,1.47805 -1.00953,2.54176 -3.69351,10.53904 1.23857,21.93766 11.50687,27.09958 l 1.65364,0.83129 -1.75388,3.50193 c -4.77147,9.52707 -11.3978,18.13098 -17.15338,20.91646 -4.18155,2.0237 -7.13171,2.10249 -12.9188,-0.35171 -4.01906,-1.70441 -5.875926,-2.10309 -9.789584,-2.10186 -4.040785,0.001 -6.087237,0.41725 -10.062342,2.04534 -4.884353,2.00049 -7.505951,2.39191 -10.545436,1.57449 z"
         id="path828"
         inkscape:connector-curvature="0" />
    </g>
  </g>
</svg>
